<?xml version="1.0" encoding="UTF-8" standalone="no"?>
<!DOCTYPE svg PUBLIC "-//W3C//DTD SVG 1.1//EN" "http://www.w3.org/Graphics/SVG/1.1/DTD/svg11.dtd">
<svg version="1.1" xmlns="http://www.w3.org/2000/svg" xmlns:xlink="http://www.w3.org/1999/xlink" preserveAspectRatio="xMidYMid meet" viewBox="0 0 640 640" width="640" height="640"><defs><path d="M453.44 278.87C453.44 286.3 459.46 292.32 466.89 292.32C466.89 292.32 466.89 292.32 466.89 292.32C482.85 292.32 610.58 292.32 626.54 292.32C633.97 292.32 640 286.31 640 278.88C640 275.55 638.77 272.34 636.54 269.87C620.57 252.16 492.85 110.52 476.88 92.81C471.91 87.29 463.41 86.85 457.89 91.82C455.05 94.37 453.44 98 453.44 101.82C453.44 101.82 453.44 261.17 453.44 278.87Z" id="c2kVFtxRb1"></path><path d="M511.8 200.65C525.7 200.65 532.65 207.6 532.65 221.5C532.65 251.48 532.65 268.14 532.65 271.47C532.65 285.37 525.7 292.32 511.8 292.32C329.17 292.32 227.71 292.32 207.41 292.32C193.51 292.32 186.56 285.37 186.56 271.47C186.56 241.49 186.56 224.83 186.56 221.5C186.56 207.6 193.51 200.65 207.41 200.65C390.04 200.65 491.51 200.65 511.8 200.65Z" id="fDOfESgg"></path><path d="M186.56 363.69C186.56 356.26 180.54 350.24 173.11 350.24C173.11 350.24 173.11 350.24 173.11 350.24C157.15 350.24 29.42 350.24 13.46 350.24C6.03 350.23 0 356.25 0 363.68C0 367.01 1.23 370.22 3.46 372.69C19.43 390.4 147.15 532.04 163.12 549.75C168.09 555.27 176.59 555.71 182.11 550.74C184.95 548.19 186.56 544.56 186.56 540.74C186.56 540.74 186.56 381.39 186.56 363.69Z" id="c1b1eENXD5"></path><path d="M128.2 441.91C114.3 441.91 107.35 434.96 107.35 421.06C107.35 391.08 107.35 374.42 107.35 371.09C107.35 357.19 114.3 350.24 128.2 350.24C310.83 350.24 412.29 350.24 432.59 350.24C446.49 350.24 453.44 357.19 453.44 371.09C453.44 401.07 453.44 417.73 453.44 421.06C453.44 434.96 446.49 441.91 432.59 441.91C249.96 441.91 148.49 441.91 128.2 441.91Z" id="a17z44Q323"></path></defs><g><g><g><use xlink:href="#c2kVFtxRb1" opacity="1" fill="#ffffff" fill-opacity="1"></use><g><use xlink:href="#c2kVFtxRb1" opacity="1" fill-opacity="0" stroke="#000000" stroke-width="0" stroke-opacity="1"></use></g></g><g><use xlink:href="#fDOfESgg" opacity="1" fill="#ffffff" fill-opacity="1"></use><g><use xlink:href="#fDOfESgg" opacity="1" fill-opacity="0" stroke="#000000" stroke-width="0" stroke-opacity="1"></use></g></g><g><use xlink:href="#c1b1eENXD5" opacity="1" fill="#ffffff" fill-opacity="1"></use><g><use xlink:href="#c1b1eENXD5" opacity="1" fill-opacity="0" stroke="#000000" stroke-width="0" stroke-opacity="1"></use></g></g><g><use xlink:href="#a17z44Q323" opacity="1" fill="#ffffff" fill-opacity="1"></use><g><use xlink:href="#a17z44Q323" opacity="1" fill-opacity="0" stroke="#000000" stroke-width="0" stroke-opacity="1"></use></g></g></g></g></svg>